<?xml version="1.0" encoding="utf-8"?>
<!-- Generator: Adobe Illustrator 22.1.0, SVG Export Plug-In . SVG Version: 6.00 Build 0)  -->
<svg version="1.1" id="Layer_1" xmlns="http://www.w3.org/2000/svg" xmlns:xlink="http://www.w3.org/1999/xlink" x="0px" y="0px"
	 viewBox="0 0 1080 1080" style="enable-background:new 0 0 1080 1080;" xml:space="preserve">
<style type="text/css">
	.st0{fill:#FC1313;}
	.st1{fill:#1D1D1D;}
	.st2{font-family:'Gadugi-Bold';}
	.st3{font-size:24px;}
</style>
<path class="st0" d="M294.1,490.1l4.9-1.9L294.1,490.1z"/>
<path class="st0" d="M278.5,490.1"/>
<polygon class="st0" points="273.6,489.2 278.5,491.1 286.5,494.2 294.1,491.1 299,489.2 304.9,501.4 301.6,506 270.9,505.8 
	267.7,501.4 "/>
<polygon class="st0" points="277.9,479 286.4,482.6 294.7,479 286.4,464.1 "/>
<polygon class="st1" points="265.3,479.3 273.4,479.3 286.6,484.4 299.2,479.3 307.3,479.3 286.6,487.8 "/>
<polygon class="st1" points="265.3,483.9 273.4,483.9 286.6,489.1 299.2,483.9 307.3,483.9 286.6,492.4 "/>
<text transform="matrix(1 0 0 1 311.1667 494.0604)" class="st0 st2 st3">AL</text>
<text transform="matrix(1 0 0 1 343.5 494.0604)" class="st2 st3">ROS</text>
</svg>
